<svg width="45" height="46" viewBox="0 0 45 46" fill="none" xmlns="http://www.w3.org/2000/svg">
<path d="M32 1.75H13C6.7868 1.75 1.75 6.7868 1.75 13V33C1.75 39.2132 6.7868 44.25 13 44.25H32C38.2132 44.25 43.25 39.2132 43.25 33V13C43.25 6.7868 38.2132 1.75 32 1.75Z" fill="#F4EBE0" stroke="#4A352A" stroke-width="3.5"/>
<path d="M18.0104 18.4459H12.183C11.3272 18.4459 10.8668 19.451 11.4258 20.0991L16.0869 25.5034C16.2907 25.7397 16.3725 26.0576 16.3081 26.3629L14.936 32.871C14.7597 33.7072 15.6457 34.365 16.3952 33.9542L22.0454 30.8573C22.3305 30.701 22.6737 30.6931 22.9656 30.836L29.3774 33.9738C30.1673 34.3603 31.0356 33.6125 30.7704 32.7741L28.758 26.4104C28.6534 26.0797 28.7277 25.7185 28.9542 25.4558L33.5742 20.0991C34.1332 19.451 33.6728 18.4459 32.817 18.4459H27.2884C26.9077 18.4459 26.56 18.2298 26.3916 17.8884L23.433 11.8911C23.0598 11.1348 21.9756 11.1516 21.6261 11.9191L18.9205 17.8604C18.7581 18.217 18.4023 18.4459 18.0104 18.4459Z" stroke="#4A352A" stroke-width="3.5"/>
</svg>
