<svg width="250" height="79" viewBox="0 0 250 79" fill="none" xmlns="http://www.w3.org/2000/svg">
<path d="M84.0039 70.6576V42.7279H88.5938L98.8477 66.0287L108.906 42.7279H113.301V70.6576H110.078V47.7475L100.156 70.6576H97.3047L87.2266 47.7475V70.6576H84.0039ZM118.574 64.4662C118.574 60.2605 121.348 58.1576 126.895 58.1576C128.678 58.1576 130.462 58.2878 132.246 58.5482V56.6146C132.246 54.2579 130.404 53.0795 126.719 53.0795C124.609 53.0795 122.448 53.405 120.234 54.056V51.1264C122.448 50.4753 124.609 50.1498 126.719 50.1498C132.812 50.1498 135.859 52.2722 135.859 56.517V70.6576H133.828L132.578 68.6264C130.534 69.9805 128.307 70.6576 125.898 70.6576C121.016 70.6576 118.574 68.5938 118.574 64.4662ZM126.895 61.0873C123.757 61.0873 122.188 62.1941 122.188 64.4076C122.188 66.6211 123.424 67.7279 125.898 67.7279C128.398 67.7279 130.514 67.0639 132.246 65.7357V61.4779C130.462 61.2175 128.678 61.0873 126.895 61.0873ZM145.352 66.4779C146.771 67.181 148.353 67.5326 150.098 67.5326C154.746 67.5326 157.07 64.974 157.07 59.8568C157.07 55.3907 154.759 53.1576 150.137 53.1576C148.314 53.1576 146.719 53.3139 145.352 53.6264V66.4779ZM141.738 50.9896C144.46 50.4297 147.272 50.1498 150.176 50.1498C157.142 50.1498 160.625 53.3985 160.625 59.8959C160.625 67.0704 157.122 70.6576 150.117 70.6576C148.477 70.6576 146.888 70.3321 145.352 69.681V78.0795H141.738V50.9896ZM179.492 70.6576L176.621 65.8529C174.694 62.6368 172.832 61.0287 171.035 61.0287V58.6264C173.118 58.6264 174.668 57.2136 175.684 54.3881C176.712 51.5626 178.451 50.1498 180.898 50.1498H182.988V53.2748H181.445C180.039 53.2748 179.004 54.2318 178.34 56.1459C177.676 58.0469 176.53 59.3165 174.902 59.9545C176.439 60.2279 178.281 62.0769 180.43 65.5014L183.672 70.6576H179.492ZM169.141 50.1498V70.6576H165.527V50.1498H169.141ZM195.547 50.1498C201.38 50.1498 204.297 53.0339 204.297 58.8021C204.297 59.6225 204.238 60.5014 204.121 61.4389H189.727C189.727 65.6316 192.174 67.7279 197.07 67.7279C199.401 67.7279 201.471 67.4675 203.281 66.9467V69.8764C201.471 70.3972 199.271 70.6576 196.68 70.6576C189.635 70.6576 186.113 67.1615 186.113 60.1693C186.113 53.4896 189.258 50.1498 195.547 50.1498ZM189.727 58.431H200.82C200.742 54.8373 198.984 53.0404 195.547 53.0404C191.901 53.0404 189.961 54.8373 189.727 58.431ZM224.297 50.1498V53.0795H217.07V70.6576H213.457V53.0795H206.23V50.1498H224.297Z" fill="#4A352A"/>
<path d="M103.388 36V8.07031H107.978L118.232 31.3711L128.29 8.07031H132.685V36H129.462V13.0898L119.54 36H116.689L106.611 13.0898V36H103.388ZM147.392 15.4922C153.225 15.4922 156.142 18.3763 156.142 24.1445C156.142 24.9648 156.083 25.8438 155.966 26.7812H141.572C141.572 30.974 144.019 33.0703 148.915 33.0703C151.246 33.0703 153.316 32.8099 155.126 32.2891V35.2188C153.316 35.7396 151.116 36 148.525 36C141.48 36 137.958 32.5039 137.958 25.5117C137.958 18.832 141.103 15.4922 147.392 15.4922ZM141.572 23.7734H152.665C152.587 20.1797 150.829 18.3828 147.392 18.3828C143.746 18.3828 141.806 20.1797 141.572 23.7734ZM162.763 36H158.564L166.728 25.7461L158.564 15.4922H162.763L168.818 23.1094L174.872 15.4922H179.072L170.907 25.7461L179.072 36H174.872L168.818 28.3828L162.763 36ZM181.513 25.7461C181.513 18.7799 184.898 15.2969 191.669 15.2969C198.44 15.2969 201.825 18.7799 201.825 25.7461C201.825 32.7122 198.44 36.1953 191.669 36.1953C184.924 36.1953 181.539 32.7122 181.513 25.7461ZM185.126 25.668C185.126 30.7331 187.307 33.2656 191.669 33.2656C196.031 33.2656 198.212 30.7331 198.212 25.668C198.212 20.707 196.031 18.2266 191.669 18.2266C187.307 18.2266 185.126 20.707 185.126 25.668Z" fill="#4A352A"/>
<path d="M45 55H38L41.6207 61L45 55Z" fill="#4A352A"/>
<path d="M2.09626 15.7685L1.80774 1L9.11605 14.7864L8.18361 28.8958L2.09626 15.7685Z" fill="#4A352A"/>
<path d="M81.8369 16.5013L82.7404 1.50719L75.3743 15.1481L75.6307 29.5341L81.8369 16.5013Z" fill="#4A352A"/>
<path d="M32.2668 30.801C33.5386 32.3745 36.8722 43.6556 37.3083 43.8354L19.5933 39.3396L14.5088 31.3907L23.2066 29.3266L32.2668 30.801Z" fill="#4A352A"/>
<path d="M51.6495 32.2905C50.3126 33.8446 47.4392 43.6578 46.9808 43.8354L65.6012 39.3951L70.4712 32.2905L60.7918 30.0175L51.6495 32.2905Z" fill="#4A352A"/>
<path d="M10.9733 39.5469L7.67651 45.8869L24.5267 56.9624L40.1371 70.9931L37.3475 65.414L26.95 53.2412L10.9733 39.5469Z" fill="#4A352A"/>
<path d="M75.3074 42.4536L76.1479 46.1937L58.3805 57.9987L42.1658 72.5147L45.0861 66.6656L55.971 53.9039L72.6966 39.5469L75.3074 42.4536Z" fill="#4A352A"/>
<path d="M41.8652 74.5435C41.8652 74.5435 41.3717 69.9518 34.8115 62.6244C28.9256 56.0502 14.2717 41.5464 10.3975 39.9678M41.8652 74.5435C41.8652 74.5435 42.1141 69.8379 48.5058 62.6244C54.5213 55.8354 65.7916 45.4261 73.0363 39.9678M41.8652 74.5435C41.8652 74.5435 39.0338 68.7273 31.0902 62.6244C25.8921 58.6308 12.8945 49.8285 8.11664 46.61C7.14673 45.9567 6.9414 44.6168 7.65804 43.6926C8.63665 42.4307 9.87918 40.7942 10.3975 39.9678M41.8652 74.5435C41.8652 74.5435 44.0893 68.7144 52.1624 62.6244C57.4647 58.6246 70.7573 49.8599 75.686 46.6288C76.6874 45.9723 76.89 44.5927 76.1235 43.6729C75.1881 42.5503 73.973 41.0921 73.0363 39.9678M25.5832 16.9295C30.3445 14.7977 35.7146 13.3801 41.5771 13.3801C47.5653 13.3801 53.0631 14.8591 57.9345 17.0675M25.5832 16.9295C18.5106 20.0961 12.7816 24.8385 8.77861 28.8508M25.5832 16.9295C25.5832 16.9295 20.9926 8.20666 15.8905 5.10504C10.9984 2.13105 1.59237 1.86698 1.59237 1.86698M1.59237 1.86698L4.05052 4.99518C4.10801 5.06833 4.15799 5.14133 4.20409 5.22215C4.70698 6.10385 7.88546 11.7788 8.77861 15.8986C9.8509 20.8446 8.77861 28.8508 8.77861 28.8508M1.59237 1.86698C1.59237 1.86698 1.38742 15.0301 4.86385 22.3747C6.12686 25.0431 8.77861 28.8508 8.77861 28.8508M8.77861 28.8508C6.49856 31.1362 4.77844 33.1846 3.68887 34.5701C2.93926 35.5234 3.28966 36.878 4.39266 37.3818C5.78845 38.0195 7.84017 38.9258 10.3975 39.9678M57.9345 17.0675C65.1298 20.3293 70.9584 25.1823 74.9818 29.2106M57.9345 17.0675C57.9345 17.0675 64.0137 8.26287 69.7802 5.10504C74.3583 2.59802 82.6524 1.50719 82.6524 1.50719M82.6524 1.50719L80.1864 4.99408C80.1341 5.06797 80.089 5.14118 80.0478 5.22173C79.5948 6.10624 76.7077 11.8304 75.7459 15.8986C74.5472 20.9692 74.9818 29.2106 74.9818 29.2106M82.6524 1.50719C82.6524 1.50719 83.5352 15.05 79.7444 22.3747C78.2511 25.2601 74.9818 29.2106 74.9818 29.2106M74.9818 29.2106C77.0775 31.3089 78.5443 33.247 79.466 34.617C80.1568 35.6439 79.6156 36.9775 78.458 37.4155C76.9136 38 74.8231 38.8846 73.0363 39.9678M43.5951 59.4873L44.7941 56.5916C45.3394 55.2748 44.3715 53.8265 42.9463 53.8265H40.748C39.374 53.8265 38.4092 55.18 38.8574 56.4788L39.8566 59.3745C40.4571 61.1146 42.8908 61.188 43.5951 59.4873Z" stroke="#4A352A" stroke-width="2.5"/>
<path d="M51.4716 31.7733C49.4553 33.207 47.8922 38.0564 47.0314 41.3447C46.6529 42.7909 47.9954 44.0333 49.4316 43.6182L64.6693 39.2137C65.1047 39.0879 65.4844 38.8179 65.7463 38.4479L68.8536 34.0584C69.6464 32.9384 69.0949 31.3924 67.7544 31.0993C63.5316 30.1759 55.4646 28.9341 51.4716 31.7733Z" stroke="#4A352A" stroke-width="2.5"/>
<path d="M31.7892 31.7733C33.7506 33.168 35.6843 37.7951 36.8598 41.0729C37.3921 42.5572 36.02 43.9542 34.5051 43.5163L19.6198 39.2137C19.1844 39.0879 18.8046 38.8179 18.5427 38.4479L15.398 34.0055C14.616 32.9008 15.1385 31.3777 16.4568 31.0711C20.4127 30.1512 27.8367 28.9629 31.7892 31.7733Z" stroke="#4A352A" stroke-width="2.5"/>
</svg>
