<svg width="54" height="47" viewBox="0 0 54 47" fill="none" xmlns="http://www.w3.org/2000/svg">
<path d="M2 5.00277C2 5.00277 4.72545 1.89445 7 2.00277C9.10969 2.10323 10.4365 3.17795 11.5 5.00277C12.207 6.21594 12.3235 8.50277 12.3235 8.50277M17.5 30.5028H45.2527C45.6959 30.5028 46.0862 30.2111 46.2117 29.7861L52.1208 9.78611C52.3101 9.14537 51.8299 8.50277 51.1618 8.50277H12.3235M17.5 30.5028L12.3235 8.50277M17.5 30.5028C17.5 30.5028 14.3729 32.5543 14.5 34.5028C14.5969 35.9882 16.5848 37.4102 17.2701 37.858C17.42 37.9559 17.5935 38.0028 17.7725 38.0028C18.3259 38.0027 19.6047 38.0027 20.5 38.0027M45 38.0028C45 38.0028 43.222 38.0028 40.5 38.0028M20.5 38.0027C18.567 38.0027 17 39.5697 17 41.5027C17 43.4357 18.567 45.0027 20.5 45.0027C22.433 45.0027 24 43.4357 24 41.5027C24 39.5697 22.433 38.0027 20.5 38.0027ZM20.5 38.0027C20.5 38.0027 32.6895 38.0027 40.5 38.0028M20.5 38.0027C26.7663 38.0027 35.3336 38.0027 40.5 38.0028M40.5 38.0028C38.567 38.0028 37.0001 39.5697 37.0001 41.5027C37 43.4357 38.5671 45.0027 40.5001 45.0027C42.4331 45.0027 44.0001 43.4357 44.0001 41.5027C44 39.5697 42.433 38.0027 40.5 38.0028Z" stroke="#4A352A" stroke-width="3.5"/>
</svg>
