<svg width="195" height="46" viewBox="0 0 195 46" fill="none" xmlns="http://www.w3.org/2000/svg">
<rect x="1.75" y="1.75" width="191.5" height="42.5" rx="11.25" fill="#F4EBE0" stroke="#4A352A" stroke-width="3.5"/>
<path d="M11 18.6626V32.2854C11 35.8667 15.3299 37.6602 17.8622 35.1279C18.6161 34.374 19.6385 33.9505 20.7047 33.9505H32.0247C38.9146 33.9505 44.5 28.3651 44.5 21.4752C44.5 14.5854 38.9146 9 32.0247 9H20.6626C15.3261 9 11 13.3261 11 18.6626Z" stroke="#4A352A" stroke-width="3.5"/>
<path d="M18.1436 17H37.2376" stroke="#4A352A" stroke-width="3.5"/>
<path d="M18 21.5941H37.0941" stroke="#4A352A" stroke-width="3.5"/>
<path d="M18 26.1881H37.0941" stroke="#4A352A" stroke-width="3.5"/>
<path d="M65.54 23.84C65.54 24.6533 65.42 25.3933 65.18 26.06C64.9533 26.7267 64.6267 27.2933 64.2 27.76C63.7867 28.2267 63.2933 28.5933 62.72 28.86C62.1467 29.1133 61.5133 29.24 60.82 29.24C60.1267 29.24 59.4933 29.1133 58.92 28.86C58.3467 28.5933 57.8467 28.2267 57.42 27.76C57.0067 27.2933 56.68 26.7267 56.44 26.06C56.2133 25.3933 56.1 24.6533 56.1 23.84C56.1 23.0267 56.2133 22.2867 56.44 21.62C56.68 20.9533 57.0067 20.3867 57.42 19.92C57.8467 19.44 58.3467 19.0733 58.92 18.82C59.4933 18.5533 60.1267 18.42 60.82 18.42C61.5133 18.42 62.1467 18.5533 62.72 18.82C63.2933 19.0733 63.7867 19.44 64.2 19.92C64.6267 20.3867 64.9533 20.9533 65.18 21.62C65.42 22.2867 65.54 23.0267 65.54 23.84ZM64.16 23.84C64.16 22.5467 63.86 21.52 63.26 20.76C62.66 19.9867 61.8467 19.6 60.82 19.6C59.7933 19.6 58.98 19.9867 58.38 20.76C57.78 21.52 57.48 22.5467 57.48 23.84C57.48 25.1333 57.78 26.16 58.38 26.92C58.98 27.68 59.7933 28.06 60.82 28.06C61.8467 28.06 62.66 27.68 63.26 26.92C63.86 26.16 64.16 25.1333 64.16 23.84ZM76.3406 29H75.0406V19.76H69.6606V29H68.3606V18.66H76.3406V29ZM82.8464 19.76V20.18C82.8464 20.58 82.8397 21.02 82.8264 21.5C82.8131 21.9667 82.7864 22.4467 82.7464 22.94C82.7064 23.4333 82.6397 23.9267 82.5464 24.42C82.4664 24.9 82.3597 25.3533 82.2264 25.78C82.0797 26.22 81.8931 26.64 81.6664 27.04C81.4531 27.4267 81.1931 27.7733 80.8864 28.08C80.5931 28.3733 80.2464 28.62 79.8464 28.82C79.4597 29.0067 79.0197 29.1267 78.5264 29.18L78.3464 28.1C79.0131 27.9533 79.5464 27.68 79.9464 27.28C80.3597 26.88 80.6997 26.3133 80.9664 25.58C81.2331 24.8467 81.3997 24.0067 81.4664 23.06C81.5464 22.1 81.5864 21.0533 81.5864 19.92V18.66H87.9464V29H86.6464V19.76H82.8464ZM94.648 28.06C95.1546 28.06 95.5946 28.0467 95.968 28.02C96.3546 27.98 96.6813 27.9333 96.948 27.88V24.24C96.8013 24.1733 96.568 24.1067 96.248 24.04C95.928 23.96 95.488 23.92 94.928 23.92C94.608 23.92 94.2746 23.9467 93.928 24C93.5813 24.04 93.2613 24.14 92.968 24.3C92.6746 24.4467 92.4346 24.6533 92.248 24.92C92.0613 25.1867 91.968 25.54 91.968 25.98C91.968 26.3667 92.028 26.6933 92.148 26.96C92.2813 27.2267 92.4613 27.44 92.688 27.6C92.928 27.76 93.208 27.88 93.528 27.96C93.8613 28.0267 94.2346 28.06 94.648 28.06ZM94.528 18.42C95.208 18.42 95.7813 18.52 96.248 18.72C96.728 18.9067 97.1146 19.1733 97.408 19.52C97.7013 19.8533 97.9146 20.2533 98.048 20.72C98.1813 21.1867 98.248 21.6933 98.248 22.24V28.76C98.1146 28.8 97.9213 28.8467 97.668 28.9C97.4146 28.94 97.1213 28.9867 96.788 29.04C96.4546 29.0933 96.0813 29.1333 95.668 29.16C95.268 29.2 94.8546 29.22 94.428 29.22C93.8813 29.22 93.3746 29.16 92.908 29.04C92.4546 28.92 92.0546 28.7333 91.708 28.48C91.3746 28.2133 91.108 27.88 90.908 27.48C90.7213 27.0667 90.628 26.5667 90.628 25.98C90.628 25.42 90.7346 24.94 90.948 24.54C91.1613 24.14 91.4613 23.8133 91.848 23.56C92.2346 23.2933 92.6946 23.1 93.228 22.98C93.7613 22.86 94.3413 22.8 94.968 22.8C95.1546 22.8 95.348 22.8133 95.548 22.84C95.7613 22.8533 95.9613 22.88 96.148 22.92C96.348 22.9467 96.5146 22.98 96.648 23.02C96.7946 23.0467 96.8946 23.0733 96.948 23.1V22.46C96.948 22.1 96.9213 21.7533 96.868 21.42C96.8146 21.0733 96.6946 20.7667 96.508 20.5C96.3346 20.22 96.0813 20 95.748 19.84C95.428 19.6667 95.0013 19.58 94.468 19.58C93.708 19.58 93.1413 19.6333 92.768 19.74C92.3946 19.8467 92.1213 19.9333 91.948 20L91.768 18.86C91.9946 18.7533 92.3413 18.6533 92.808 18.56C93.288 18.4667 93.8613 18.42 94.528 18.42ZM108.224 18.66V19.76H104.824V29H103.524V19.76H100.144V18.66H108.224ZM117.276 20.32C116.876 20.8 116.409 21.4067 115.876 22.14C115.356 22.8733 114.822 23.6467 114.276 24.46C113.742 25.2733 113.229 26.08 112.736 26.88C112.242 27.68 111.816 28.3867 111.456 29H110.236V18.66H111.516V26.94C111.836 26.3667 112.229 25.7067 112.696 24.96C113.176 24.2 113.682 23.44 114.216 22.68C114.749 21.9067 115.282 21.1667 115.816 20.46C116.362 19.7533 116.869 19.1533 117.336 18.66H118.556V29H117.276V20.32ZM128.653 18.66V19.76H125.253V29H123.953V19.76H120.573V18.66H128.653ZM130.665 18.66H131.965V22.8C132.205 22.7333 132.559 22.6667 133.025 22.6C133.505 22.52 133.999 22.48 134.505 22.48C135.065 22.48 135.592 22.54 136.085 22.66C136.579 22.78 137.012 22.9733 137.385 23.24C137.759 23.5067 138.052 23.8533 138.265 24.28C138.492 24.7067 138.605 25.2267 138.605 25.84C138.605 26.4533 138.492 26.9733 138.265 27.4C138.052 27.8267 137.752 28.18 137.365 28.46C136.992 28.7267 136.539 28.92 136.005 29.04C135.485 29.16 134.925 29.22 134.325 29.22C133.965 29.22 133.599 29.2067 133.225 29.18C132.865 29.1533 132.525 29.12 132.205 29.08C131.885 29.04 131.592 28.9933 131.325 28.94C131.059 28.8867 130.839 28.8267 130.665 28.76V18.66ZM134.325 28.06C135.219 28.06 135.932 27.8933 136.465 27.56C136.999 27.2133 137.265 26.64 137.265 25.84C137.265 25.4667 137.192 25.14 137.045 24.86C136.899 24.58 136.699 24.3533 136.445 24.18C136.205 23.9933 135.912 23.86 135.565 23.78C135.232 23.6867 134.865 23.64 134.465 23.64C134.025 23.64 133.585 23.66 133.145 23.7C132.705 23.74 132.312 23.82 131.965 23.94V27.86C132.139 27.9 132.445 27.9467 132.885 28C133.325 28.04 133.805 28.06 134.325 28.06ZM142.74 28.14C142.74 28.4467 142.64 28.7067 142.44 28.92C142.253 29.1333 141.986 29.24 141.64 29.24C141.293 29.24 141.02 29.1333 140.82 28.92C140.633 28.7067 140.54 28.4467 140.54 28.14C140.54 27.8333 140.633 27.5733 140.82 27.36C141.02 27.1467 141.293 27.04 141.64 27.04C141.986 27.04 142.253 27.1467 142.44 27.36C142.64 27.5733 142.74 27.8333 142.74 28.14ZM147.662 28.14C147.662 28.4467 147.562 28.7067 147.362 28.92C147.175 29.1333 146.908 29.24 146.562 29.24C146.215 29.24 145.942 29.1333 145.742 28.92C145.555 28.7067 145.462 28.4467 145.462 28.14C145.462 27.8333 145.555 27.5733 145.742 27.36C145.942 27.1467 146.215 27.04 146.562 27.04C146.908 27.04 147.175 27.1467 147.362 27.36C147.562 27.5733 147.662 27.8333 147.662 28.14ZM152.583 28.14C152.583 28.4467 152.483 28.7067 152.283 28.92C152.097 29.1333 151.83 29.24 151.483 29.24C151.137 29.24 150.863 29.1333 150.663 28.92C150.477 28.7067 150.383 28.4467 150.383 28.14C150.383 27.8333 150.477 27.5733 150.663 27.36C150.863 27.1467 151.137 27.04 151.483 27.04C151.83 27.04 152.097 27.1467 152.283 27.36C152.483 27.5733 152.583 27.8333 152.583 28.14Z" fill="#4A352A"/>
</svg>
